#!OML:ASF E:\motion texture\Top Level 1\Subject 1\Session 1\male.ASF
:FULLY-SPECIFIED
:DEGREES
515
root -27.4602 17.9587 0.182317 36.9712 -85.27 -27.3616
lowerback -1.55497 -6.05063 2.30221
upperback -2.03757 -8.15653 4.75793
thorax -0.854461 -4.12516 3.53022
lowerneck -11.8872 -9.67878 -12.2558
upperneck 9.48284 -12.0469 8.4132
head 6.06423 -5.77137 3.45735
rclavicle -7.69297e-014 3.65764e-014
rhumerus -26.2667 6.74737 -82.6108
rradius 70.3966
rwrist 11.9996
rhand -22.2312 -23.2794
rfingers 7.12502
rthumb 4.18554 -53.2181
lclavicle -7.69297e-014 3.65764e-014
lhumerus -9.74524 -25.9378 100.86
lradius 49.5616
lwrist 7.95344
lhand -10.6299 33.4859
lfingers 7.12502
lthumb 15.377 62.8941
rfemur -29.3924 -1.64501 28.0794
rtibia 20.1705
rfoot -3.30501 -20.1681
rtoes 21.1501
lfemur -8.20336 2.60175 -17.5037
ltibia 37.181
lfoot -1.72335 -7.30263
ltoes -17.6786
516
root -27.593 17.9661 0.195394 40.5156 -85.3785 -30.9454
lowerback -1.49825 -6.01872 2.50683
upperback -1.97819 -8.1172 4.80924
thorax -0.847385 -4.10825 3.47565
lowerneck -11.8932 -9.61843 -12.2236
upperneck 9.37366 -11.9565 8.37819
head 6.01705 -5.72849 3.45393
rclavicle -1.08536e-013 8.74653e-015
rhumerus -25.5973 7.31337 -82.5212
rradius 70.8908
rwrist 12.2087
rhand -22.4186 -23.2398
rfingers 7.12502
rthumb 4.00457 -53.1819
lclavicle -1.08536e-013 8.74653e-015
lhumerus -9.38159 -26.5631 101.09
lradius 49.7749
lwrist 8.20719
lhand -10.5453 33.6572
lfingers 7.12502
lthumb 15.4584 63.0591
rfemur -29.0237 -1.47957 28.3525
rtibia 20.4163
rfoot -3.34001 -19.8337
rtoes 21.6352
lfemur -8.94659 2.76076 -17.162
ltibia 38.551
lfoot -1.07045 -7.21539
ltoes -18.0084
517
root -27.7256 17.9737 0.2082 44.4862 -85.4914 -34.9574
lowerback -1.44077 -5.98027 2.7103
upperback -1.91878 -8.06906 4.85832
thorax -0.841009 -4.08687 3.41958
lowerneck -11.8947 -9.55292 -12.1915
upperneck 9.26493 -11.8599 8.34234
head 5.96867 -5.68272 3.45114
rclavicle 3.57812e-015 5.88403e-014
rhumerus -24.8885 7.88982 -82.4166
rradius 71.3692
rwrist 12.4094
rhand -22.6026 -23.201
rfingers 7.12502
rthumb 3.82691 -53.1464
lclavicle 3.57812e-015 5.88403e-014
lhumerus -8.99866 -27.1647 101.294
lradius 49.9989
lwrist 8.44472
lhand -10.4642 33.8241
lfingers 7.12502
lthumb 15.5366 63.22
rfemur -28.6355 -1.30283 28.6258
rtibia 20.6399
rfoot -3.40489 -19.4863
rtoes 22.0444
lfemur -9.71661 2.93509 -16.8178
ltibia 39.9077
lfoot -0.470741 -7.10216
ltoes -18.3157
518
root -27.858 17.9814 0.220814 48.8804 -85.5995 -39.3942
lowerback -1.38446 -5.93711 2.91303
upperback -1.85871 -8.01467 4.90453
thorax -0.833604 -4.0623 3.36078
lowerneck -11.8968 -9.48305 -12.158
upperneck 9.15889 -11.7575 8.30445
head 5.92055 -5.63426 3.44805
rclavicle -1.39845e-013 6.52014e-014
rhumerus -24.139 8.4755 -82.2964
rradius 71.8335
rwrist 12.602
rhand -22.7827 -23.1653
rfingers 7.12502
rthumb 3.65297 -53.1138
lclavicle -1.39845e-013 6.52014e-014
lhumerus -8.58975 -27.745 101.468
lradius 50.2325
lwrist 8.67113
lhand -10.3885 33.9881
lfingers 7.12502
lthumb 15.6095 63.3783
rfemur -28.2279 -1.11778 28.8965
rtibia 20.8372
rfoot -3.49589 -19.1323
rtoes 22.424
lfemur -10.5111 3.11944 -16.4732
ltibia 41.2427
lfoot 0.0668777 -6.96643
ltoes -18.601
519
root -27.99 17.9891 0.23326 53.7333 -85.6972 -44.2902
lowerback -1.32907 -5.8888 3.11531
upperback -1.79851 -7.9534 4.94699
thorax -0.825967 -4.03419 3.29827
lowerneck -11.899 -9.40943 -12.1221
upperneck 9.05576 -11.6506 8.26426
head 5.87272 -5.58361 3.4443
rclavicle 1.58034e-014 -9.54166e-015
rhumerus -23.3496 9.06825 -82.1604
rradius 72.283
rwrist 12.7869
rhand -22.9586 -23.1318
rfingers 7.12502
rthumb 3.48304 -53.0831
lclavicle 1.58034e-014 -9.54166e-015
lhumerus -8.15419 -28.3034 101.611
lradius 50.4759
lwrist 8.88572
lhand -10.3156 34.1497
lfingers 7.12502
lthumb 15.6797 63.5344
rfemur -27.8031 -0.92528 29.165
rtibia 21.0101
rfoot -3.60874 -18.7737
rtoes 22.7504
lfemur -11.3281 3.315 -16.1285
ltibia 42.5493
lfoot 0.538466 -6.80955
ltoes -18.8617
520
root -28.1215 17.9969 0.245471 59.0558 -85.7789 -49.6551
lowerback -1.27386 -5.83529 3.31468
upperback -1.73948 -7.88501 4.98568
thorax -0.81949 -4.00244 3.23348
lowerneck -11.898 -9.3315 -12.087
upperneck 8.9532 -11.5384 8.22485
head 5.82422 -5.53047 3.44155
rclavicle 2.67365e-014 1.19271e-014
rhumerus -22.5205 9.66717 -82.0079
rradius 72.7167
rwrist 12.9648
rhand -23.1297 -23.1013
rfingers 7.12502
rthumb 3.3178 -53.0553
lclavicle 2.67365e-014 1.19271e-014
lhumerus -7.69156 -28.8375 101.723
lradius 50.7296
lwrist 9.09211
lhand -10.2519 34.3042
lfingers 7.12502
lthumb 15.7411 63.6841
rfemur -27.365 -0.724777 29.43
rtibia 21.1614
rfoot -3.74065 -18.4148
rtoes 23.0166
lfemur -12.1659 3.52319 -15.7853
ltibia 43.8195
lfoot 0.939417 -6.63307
ltoes -19.0993
521
root -28.2525 18.0046 0.257451 64.7529 -85.8357 -55.3932
lowerback -1.21825 -5.77888 3.50852
upperback -1.68154 -7.81252 5.02033
thorax -0.813945 -3.9685 3.16758
lowerneck -11.8976 -9.25011 -12.0513
upperneck 8.85282 -11.4218 8.18444
head 5.77609 -5.47518 3.43876
rclavicle -1.73937e-014 2.22639e-014
rhumerus -21.6493 10.2713 -81.8377
rradius 73.1333
rwrist 13.136
rhand -23.2968 -23.0729
rfingers 7.12502
rthumb 3.15648 -53.0293
lclavicle -1.73937e-014 2.22639e-014
lhumerus -7.19662 -29.3475 101.801
lradius 50.9924
lwrist 9.29201
lhand -10.1945 34.4587
lfingers 7.12502
lthumb 15.7963 63.8342
rfemur -26.9151 -0.520419 29.6884
rtibia 21.2908
rfoot -3.89144 -18.0658
rtoes 23.2267
lfemur -13.023 3.73899 -15.4467
ltibia 45.0469
lfoot 1.26764 -6.43896
ltoes -19.3109
522
root -28.383 18.0121 0.269362 70.8813 -85.8619 -61.5648
lowerback -1.1621 -5.71737 3.70154
upperback -1.62288 -7.73308 5.05026
thorax -0.808308 -3.93098 3.09722
lowerneck -11.8972 -9.16473 -12.015
upperneck 8.75394 -11.3003 8.14442
head 5.72805 -5.4174 3.43647
rclavicle 4.17448e-014 -1.90833e-014
rhumerus -20.7375 10.8791 -81.6504
rradius 73.5342
rwrist 13.3016
rhand -23.4591 -23.0477
rfingers 7.12502
rthumb 2.9997 -53.0063
lclavicle 4.17448e-014 -1.90833e-014
lhumerus -6.66891 -29.8313 101.844
lradius 51.2649
lwrist 9.48635
lhand -10.145 34.6107
lfingers 7.12502
lthumb 15.844 63.9824
rfemur -26.4511 -0.315016 29.9458
rtibia 21.4048
rfoot -4.06114 -17.724
rtoes 23.3683
lfemur -13.8875 3.96739 -15.1099
ltibia 46.2191
lfoot 1.51878 -6.22439
ltoes -19.4993
523
root -28.513 18.0195 0.281071 77.2674 -85.8505 -67.9919
lowerback -1.10688 -5.65301 3.88829
upperback -1.5654 -7.64963 5.07564
thorax -0.80284 -3.89132 3.02542
lowerneck -11.8976 -9.0756 -11.9783
upperneck 8.65661 -11.1739 8.10417
head 5.68023 -5.35722 3.43441
rclavicle -2.9122e-014 -1.74931e-014
rhumerus -19.7819 11.4901 -81.4447
rradius 73.9146
rwrist 13.4627
rhand -23.6126 -23.0242
rfingers 7.12502
rthumb 2.8515 -52.9849
lclavicle -2.9122e-014 -1.74931e-014
lhumerus -6.10737 -30.2864 101.852
lradius 51.5472
lwrist 9.67479
lhand -10.1121 34.7625
lfingers 7.12502
lthumb 15.8757 64.1317
rfemur -25.9798 -0.114404 30.1998
rtibia 21.5093
rfoot -4.25342 -17.3892
rtoes 23.4475
lfemur -14.7627 4.20499 -14.7787
ltibia 47.3313
lfoot 1.69325 -5.99011
ltoes -19.6601
524
root -28.6425 18.0267 0.292647 83.7985 -85.7971 -74.5642
lowerback -1.05114 -5.58575 4.06871
upperback -1.50799 -7.56201 5.09564
thorax -0.797289 -3.8494 2.95144
lowerneck -11.903 -8.98328 -11.9391
upperneck 8.56321 -11.0431 8.06186
head 5.63391 -5.29483 3.43148
rclavicle 9.47209e-014 -7.39479e-014
rhumerus -18.7824 12.1027 -81.2198
rradius 74.2758
rwrist 13.619
rhand -23.7602 -23.004
rfingers 7.12502
rthumb 2.70892 -52.9666
lclavicle 9.47209e-014 -7.39479e-014
lhumerus -5.51084 -30.7109 101.824
lradius 51.8403
lwrist 9.85608
lhand -10.0796 34.9176
lfingers 7.12502
lthumb 15.907 64.2843
rfemur -25.4986 0.0809053 30.4487
rtibia 21.6046
rfoot -4.46811 -17.0528
rtoes 23.4877
lfemur -15.6407 4.45235 -14.4542
ltibia 48.3739
lfoot 1.78784 -5.73513
ltoes -19.7992
